<svg width="25" height="24" viewBox="0 0 25 24" fill="none" xmlns="http://www.w3.org/2000/svg">
<g clip-path="url(#clip0_101_485)">
<path d="M2.42598 6.85399L11.673 1.30999C11.8284 1.21674 12.0062 1.16748 12.1875 1.16748C12.3687 1.16748 12.5466 1.21674 12.702 1.30999L21.94 6.85499C22.0141 6.8994 22.0755 6.96227 22.118 7.03746C22.1606 7.11264 22.183 7.19758 22.183 7.28399V20C22.183 20.2652 22.0776 20.5196 21.8901 20.7071C21.7026 20.8946 21.4482 21 21.183 21H3.18298C2.91777 21 2.66341 20.8946 2.47588 20.7071C2.28834 20.5196 2.18298 20.2652 2.18298 20V7.28299C2.18297 7.19658 2.20534 7.11164 2.24793 7.03646C2.29052 6.96127 2.35186 6.8984 2.42598 6.85399ZM4.18298 8.13299V19H20.183V8.13199L12.187 3.33199L4.18298 8.13199V8.13299ZM12.243 13.698L17.539 9.23499L18.827 10.765L12.257 16.302L5.54698 10.772L6.81898 9.22799L12.243 13.698Z" fill="white"/>
</g>
<defs>
<clipPath id="clip0_101_485">
<rect width="24" height="24" fill="white" transform="translate(0.182983)"/>
</clipPath>
</defs>
</svg>
