<svg width="28" height="28" viewBox="0 0 28 28" fill="none" xmlns="http://www.w3.org/2000/svg">
<path d="M14.0013 0.666992C21.3651 0.666992 27.3347 6.63653 27.3347 14.0003C27.3347 21.3641 21.3651 27.3337 14.0013 27.3337C11.5561 27.3337 9.26468 26.6755 7.29448 25.5266L0.673542 27.3337L2.47616 20.709C1.32658 18.7385 0.667969 16.4463 0.667969 14.0003C0.667969 6.63653 6.6375 0.666992 14.0013 0.666992ZM9.18976 7.74477C9.01724 7.75689 8.84809 7.79902 8.69409 7.87781C8.57856 7.93691 8.4713 8.02234 8.30278 8.18147C8.14365 8.33173 8.05142 8.46295 7.95425 8.58947C7.46132 9.23126 7.19638 10.0191 7.2013 10.8283C7.20398 11.4825 7.3739 12.1182 7.64225 12.7118C8.18642 13.9155 9.08384 15.1881 10.2692 16.3682C10.554 16.6517 10.833 16.9382 11.1338 17.203C12.6051 18.4985 14.3584 19.4326 16.2543 19.9313C16.2543 19.9313 17.0009 20.0459 17.0119 20.0466C17.2592 20.0599 17.5061 20.0421 17.7537 20.0294C18.1421 20.0094 18.5213 19.9043 18.8645 19.7215C19.0852 19.6041 19.1896 19.5457 19.3748 19.4289C19.3748 19.4289 19.4316 19.3905 19.5412 19.3089C19.7212 19.1747 19.8324 19.0803 19.9821 18.9249C20.0925 18.8102 20.1875 18.6747 20.2608 18.5221C20.3651 18.3045 20.47 17.8891 20.5117 17.5442C20.5436 17.2807 20.534 17.1367 20.5305 17.0475C20.5248 16.9041 20.4063 16.7565 20.2764 16.6938L19.5011 16.3453C19.5011 16.3453 18.3417 15.8407 17.6327 15.5173C17.5588 15.4835 17.478 15.4679 17.3968 15.463C17.2189 15.4521 17.0196 15.4985 16.8928 15.6321C16.8861 15.6294 16.7979 15.7057 15.8332 16.8743C15.78 16.9379 15.6553 17.0762 15.4397 17.0633C15.4072 17.061 15.3748 17.0563 15.3432 17.0481C15.2559 17.025 15.1708 16.9946 15.0876 16.9594C14.9227 16.8894 14.8648 16.8629 14.7521 16.8143C13.9824 16.4781 13.276 16.0282 12.6516 15.4777C12.4841 15.3302 12.3284 15.1714 12.1679 15.0158C11.6076 14.4727 11.1489 13.8951 10.8077 13.3254C10.7891 13.2943 10.7604 13.2494 10.7294 13.1991C10.6736 13.1083 10.612 13.0003 10.5927 12.9262C10.5432 12.7301 10.6746 12.5725 10.6746 12.5725C10.6746 12.5725 10.9992 12.2177 11.15 12.0247C11.295 11.839 11.4203 11.6574 11.5 11.5279C11.6571 11.2754 11.7068 11.0145 11.6243 10.8132C11.2502 9.90119 10.8642 8.99414 10.4665 8.09225C10.388 7.91426 10.1545 7.78494 9.94212 7.76042C9.8702 7.75211 9.79833 7.74376 9.72612 7.73902C9.54737 7.7303 9.36826 7.73222 9.18976 7.74477Z" fill="#13E50F"/>
</svg>
